<svg width="93" height="22" viewBox="0 0 93 22" fill="none" xmlns="http://www.w3.org/2000/svg">
<path fill-rule="evenodd" clip-rule="evenodd" d="M28.4488 6.99099L26.0403 12.9927H29.3726L28.4596 6.96554L28.4488 6.99099ZM15.6898 20.7671L25.5702 0.427612H33.0381L37.2047 20.7671H30.6459L30.1639 18.0571H23.8014L22.3374 20.7671H15.6898ZM40.3085 20.7671L43.1708 0.427612H49.7789L46.9172 20.7671H40.3085V20.7671ZM84.2554 6.96554L81.8372 12.9927H85.1695L84.2554 6.96554V6.96554ZM71.4861 20.7671L81.3666 0.427612H88.8339L93 20.7671H86.4417L85.9598 18.0571H79.5972L78.1333 20.7671H71.4861ZM56.8785 11.2567H65.1575L70.8311 20.6534H62.5504L56.8785 11.2567Z" fill="#0D6FAB"/>
<path fill-rule="evenodd" clip-rule="evenodd" d="M57.7388 9.81309H66.2967L73.729 0.457031H65.1711L57.7388 9.81309V9.81309ZM49.1809 20.7106H57.7388L65.1711 11.2391H56.6131L49.1809 20.7106V20.7106Z" fill="#DB8135"/>
<path fill-rule="evenodd" clip-rule="evenodd" d="M52.2666 0.342763H60.2544L65.7266 9.81308H57.7389L52.2666 0.342763ZM15.886 1.15619L15.2502 7.13807C12.8145 3.7786 7.17032 6.09668 6.72684 10.282C6.16344 15.5947 11.5961 16.8341 14.5528 13.7054L13.9153 19.7014C13.0328 20.1359 12.1702 20.4713 11.3189 20.6993C10.4907 20.9235 9.6385 21.0466 8.78076 21.0658C7.72184 21.0879 6.76304 20.9764 5.89814 20.7332C5.0551 20.5042 4.2621 20.1202 3.55969 19.6007C2.22473 18.625 1.25971 17.3845 0.664632 15.8742C0.0706863 14.3593 -0.125598 12.6504 0.0774747 10.7402C0.240386 9.20556 0.627864 7.80555 1.24387 6.5362C1.85479 5.26685 2.70102 4.1146 3.77861 3.06926C4.79736 2.07199 5.90663 1.32023 7.10753 0.808868C8.30278 0.3026 9.60832 0.0322155 11.0191 0.00280105C11.8508 -0.0172285 12.6817 0.070229 13.491 0.263005C14.2971 0.455896 15.0924 0.75683 15.886 1.15619V1.15619Z" fill="#0D6FAB"/>
</svg>
