<svg width="172" height="59" viewBox="0 0 172 59" fill="none" xmlns="http://www.w3.org/2000/svg">
<path fill-rule="evenodd" clip-rule="evenodd" d="M52.6151 12.9296L48.1605 24.0295H54.3235L52.635 12.8825L52.6151 12.9296ZM29.0176 38.4081L47.2911 0.790863H61.1027L68.8088 38.4081H56.6784L55.7871 33.3959H44.0197L41.3122 38.4081H29.0176ZM74.5491 38.4081L79.8428 0.790863H92.0641L86.7716 38.4081H74.5491V38.4081ZM155.827 12.8825L151.355 24.0295H157.518L155.827 12.8825V12.8825ZM132.211 38.4081L150.484 0.790863H164.295L172 38.4081H159.871L158.979 33.3959H147.212L144.505 38.4081H132.211ZM105.195 20.8188H120.506L131 38.1978H115.685L105.195 20.8188Z" fill="white"/>
<path fill-rule="evenodd" clip-rule="evenodd" d="M106.786 18.149H122.613L136.359 0.845276H120.531L106.786 18.149V18.149ZM90.9583 38.3035H106.786L120.531 20.7864H104.704L90.9583 38.3035V38.3035Z" fill="#DB8135"/>
<path fill-rule="evenodd" clip-rule="evenodd" d="M96.6652 0.633927H111.438L121.559 18.1489H106.786L96.6652 0.633927ZM29.3806 2.13833L28.2047 13.2016C23.6999 6.98837 13.2612 11.2756 12.441 19.0162C11.399 28.8419 21.4465 31.134 26.9148 25.3476L25.7358 36.4371C24.1038 37.2405 22.5083 37.8609 20.9339 38.2825C19.4022 38.6972 17.826 38.9248 16.2397 38.9604C14.2812 39.0012 12.508 38.7951 10.9084 38.3453C9.34923 37.9217 7.88259 37.2115 6.58352 36.2508C4.11455 34.4462 2.32978 32.1519 1.22921 29.3587C0.130732 26.557 -0.232289 23.3965 0.143287 19.8636C0.444584 17.0253 1.16121 14.4361 2.30049 12.0885C3.43036 9.74085 4.99543 7.6098 6.98839 5.67647C8.87254 3.83207 10.9241 2.44171 13.1451 1.49597C15.3557 0.559647 17.7702 0.0595814 20.3794 0.00518044C21.9177 -0.0318635 23.4543 0.129886 24.9512 0.486418C26.4419 0.843163 27.9129 1.39973 29.3806 2.13833V2.13833Z" fill="white"/>
<path d="M43.5568 50.9205L42.6534 51.1761C42.5966 51.0256 42.5128 50.8793 42.402 50.7372C42.294 50.5923 42.1463 50.473 41.9588 50.3793C41.7713 50.2855 41.5312 50.2386 41.2386 50.2386C40.8381 50.2386 40.5043 50.331 40.2372 50.5156C39.973 50.6974 39.8409 50.929 39.8409 51.2102C39.8409 51.4602 39.9318 51.6577 40.1136 51.8026C40.2955 51.9474 40.5795 52.0682 40.9659 52.1648L41.9375 52.4034C42.5227 52.5455 42.9588 52.7628 43.2457 53.0554C43.5327 53.3452 43.6761 53.7187 43.6761 54.1761C43.6761 54.5511 43.5682 54.8864 43.3523 55.1818C43.1392 55.4773 42.8409 55.7102 42.4574 55.8807C42.0739 56.0511 41.6278 56.1364 41.1193 56.1364C40.4517 56.1364 39.8991 55.9915 39.4616 55.7017C39.0241 55.4119 38.7472 54.9886 38.6307 54.4318L39.5852 54.1932C39.6761 54.5455 39.848 54.8097 40.1009 54.9858C40.3565 55.1619 40.6903 55.25 41.1023 55.25C41.571 55.25 41.9432 55.1506 42.2188 54.9517C42.4972 54.75 42.6364 54.5085 42.6364 54.2273C42.6364 54 42.5568 53.8097 42.3977 53.6562C42.2386 53.5 41.9943 53.3835 41.6648 53.3068L40.5739 53.0511C39.9744 52.9091 39.5341 52.6889 39.2528 52.3906C38.9744 52.0895 38.8352 51.7131 38.8352 51.2614C38.8352 50.892 38.9389 50.5653 39.1463 50.2812C39.3565 49.9972 39.642 49.7741 40.0028 49.6122C40.3665 49.4503 40.7784 49.3693 41.2386 49.3693C41.8864 49.3693 42.3949 49.5114 42.7642 49.7955C43.1364 50.0795 43.4006 50.4545 43.5568 50.9205ZM47.9343 56.1364C47.3036 56.1364 46.7596 55.9972 46.3022 55.7188C45.8477 55.4375 45.4968 55.0455 45.2496 54.5426C45.0053 54.0369 44.8832 53.4489 44.8832 52.7784C44.8832 52.108 45.0053 51.517 45.2496 51.0057C45.4968 50.4915 45.8406 50.0909 46.2809 49.804C46.7241 49.5142 47.2411 49.3693 47.832 49.3693C48.1729 49.3693 48.5096 49.4261 48.842 49.5398C49.1744 49.6534 49.4769 49.8381 49.7496 50.0938C50.0224 50.3466 50.2397 50.6818 50.4016 51.0994C50.5636 51.517 50.6445 52.0312 50.6445 52.642V53.0682H45.5991V52.1989H49.6218C49.6218 51.8295 49.5479 51.5 49.4002 51.2102C49.2553 50.9205 49.0479 50.6918 48.7781 50.5241C48.511 50.3565 48.1957 50.2727 47.832 50.2727C47.4315 50.2727 47.0849 50.3722 46.7923 50.571C46.5025 50.767 46.2795 51.0227 46.1232 51.3381C45.967 51.6534 45.8888 51.9915 45.8888 52.3523V52.9318C45.8888 53.4261 45.9741 53.8452 46.1445 54.1889C46.3178 54.5298 46.5579 54.7898 46.8647 54.9688C47.1715 55.1449 47.5281 55.233 47.9343 55.233C48.1985 55.233 48.4371 55.196 48.6502 55.1222C48.8661 55.0455 49.0522 54.9318 49.2085 54.7812C49.3647 54.6278 49.4854 54.4375 49.5707 54.2102L50.5423 54.483C50.44 54.8125 50.2681 55.1023 50.0266 55.3523C49.7852 55.5994 49.4869 55.7926 49.1317 55.9318C48.7766 56.0682 48.3775 56.1364 47.9343 56.1364ZM56.2994 53.3239V49.4545H57.305V56H56.2994V54.892H56.2312C56.0778 55.2244 55.8391 55.5071 55.5153 55.7401C55.1914 55.9702 54.7823 56.0852 54.288 56.0852C53.8789 56.0852 53.5153 55.9957 53.1971 55.8168C52.8789 55.6349 52.6289 55.3622 52.4471 54.9986C52.2653 54.6321 52.1744 54.1705 52.1744 53.6136V49.4545H53.18V53.5455C53.18 54.0227 53.3136 54.4034 53.5806 54.6875C53.8505 54.9716 54.1942 55.1136 54.6119 55.1136C54.8619 55.1136 55.1161 55.0497 55.3746 54.9219C55.636 54.794 55.8548 54.598 56.0309 54.3338C56.2099 54.0696 56.2994 53.733 56.2994 53.3239ZM62.6584 56V47.2727H63.6641V50.4943H63.7493C63.8232 50.3807 63.9254 50.2358 64.0561 50.0597C64.1896 49.8807 64.38 49.7216 64.6271 49.5824C64.8771 49.4403 65.2152 49.3693 65.6413 49.3693C66.1925 49.3693 66.6783 49.5071 67.0987 49.7827C67.5192 50.0582 67.8473 50.4489 68.0831 50.9545C68.3189 51.4602 68.4368 52.0568 68.4368 52.7443C68.4368 53.4375 68.3189 54.0384 68.0831 54.5469C67.8473 55.0526 67.5206 55.4446 67.103 55.723C66.6854 55.9986 66.2038 56.1364 65.6584 56.1364C65.2379 56.1364 64.9013 56.0668 64.6484 55.9276C64.3956 55.7855 64.201 55.625 64.0646 55.446C63.9283 55.2642 63.8232 55.1136 63.7493 54.9943H63.63V56H62.6584ZM63.647 52.7273C63.647 53.2216 63.7195 53.6577 63.8643 54.0355C64.0092 54.4105 64.2209 54.7045 64.4993 54.9176C64.7777 55.1278 65.1186 55.233 65.522 55.233C65.9425 55.233 66.2933 55.1222 66.5746 54.9006C66.8587 54.6761 67.0717 54.375 67.2138 53.9972C67.3587 53.6165 67.4311 53.1932 67.4311 52.7273C67.4311 52.267 67.3601 51.8523 67.218 51.483C67.0788 51.1108 66.8672 50.8168 66.5831 50.6009C66.3018 50.3821 65.9482 50.2727 65.522 50.2727C65.1129 50.2727 64.7692 50.3764 64.4908 50.5838C64.2124 50.7884 64.0021 51.0753 63.8601 51.4446C63.718 51.8111 63.647 52.2386 63.647 52.7273ZM71.9013 56.1534C71.4865 56.1534 71.1101 56.0753 70.772 55.919C70.4339 55.7599 70.1655 55.5312 69.9666 55.233C69.7678 54.9318 69.6683 54.5682 69.6683 54.142C69.6683 53.767 69.7422 53.4631 69.8899 53.2301C70.0376 52.9943 70.2351 52.8097 70.4822 52.6761C70.7294 52.5426 71.0021 52.4432 71.3004 52.3778C71.6016 52.3097 71.9041 52.2557 72.2081 52.2159C72.6058 52.1648 72.9283 52.1264 73.1754 52.1009C73.4254 52.0724 73.6072 52.0256 73.7209 51.9602C73.8374 51.8949 73.8956 51.7812 73.8956 51.6193V51.5852C73.8956 51.1648 73.7805 50.8381 73.5504 50.6051C73.3232 50.3722 72.978 50.2557 72.5149 50.2557C72.0348 50.2557 71.6584 50.3608 71.3857 50.571C71.1129 50.7812 70.9212 51.0057 70.8104 51.2443L69.8558 50.9034C70.0263 50.5057 70.2536 50.196 70.5376 49.9744C70.8246 49.75 71.1371 49.5937 71.4751 49.5057C71.8161 49.4148 72.1513 49.3693 72.4808 49.3693C72.6911 49.3693 72.9325 49.3949 73.2053 49.446C73.4808 49.4943 73.7464 49.5952 74.0021 49.7486C74.2607 49.902 74.4751 50.1335 74.6456 50.4432C74.8161 50.7528 74.9013 51.1676 74.9013 51.6875V56H73.8956V55.1136H73.8445C73.7763 55.2557 73.6626 55.4077 73.5036 55.5696C73.3445 55.7315 73.1328 55.8693 72.8686 55.983C72.6044 56.0966 72.282 56.1534 71.9013 56.1534ZM72.0547 55.25C72.4524 55.25 72.7876 55.1719 73.0604 55.0156C73.3359 54.8594 73.5433 54.6577 73.6825 54.4105C73.8246 54.1634 73.8956 53.9034 73.8956 53.6307V52.7102C73.853 52.7614 73.7592 52.8082 73.6143 52.8509C73.4723 52.8906 73.3075 52.9261 73.12 52.9574C72.9354 52.9858 72.755 53.0114 72.5788 53.0341C72.4055 53.054 72.2649 53.071 72.157 53.0852C71.8956 53.1193 71.6513 53.1747 71.424 53.2514C71.1996 53.3253 71.0178 53.4375 70.8786 53.5881C70.7422 53.7358 70.674 53.9375 70.674 54.1932C70.674 54.5426 70.8033 54.8068 71.0618 54.9858C71.3232 55.1619 71.6541 55.25 72.0547 55.25ZM77.7425 52.0625V56H76.7369V49.4545H77.7085V50.4773H77.7937C77.9471 50.1449 78.18 49.8778 78.4925 49.6761C78.805 49.4716 79.2085 49.3693 79.7028 49.3693C80.146 49.3693 80.5337 49.4602 80.8661 49.642C81.1985 49.821 81.457 50.0938 81.6417 50.4602C81.8263 50.8239 81.9187 51.2841 81.9187 51.8409V56H80.913V51.9091C80.913 51.3949 80.7795 50.9943 80.5124 50.7074C80.2454 50.4176 79.8789 50.2727 79.413 50.2727C79.092 50.2727 78.805 50.3423 78.5522 50.4815C78.3022 50.6207 78.1048 50.8239 77.9599 51.0909C77.815 51.358 77.7425 51.6818 77.7425 52.0625ZM86.4155 56.1364C85.8018 56.1364 85.2734 55.9915 84.8303 55.7017C84.3871 55.4119 84.0462 55.0128 83.8075 54.5043C83.5689 53.9957 83.4496 53.4148 83.4496 52.7614C83.4496 52.0966 83.5717 51.5099 83.8161 51.0014C84.0632 50.4901 84.407 50.0909 84.8473 49.804C85.2905 49.5142 85.8075 49.3693 86.3984 49.3693C86.8587 49.3693 87.2734 49.4545 87.6428 49.625C88.0121 49.7955 88.3146 50.0341 88.5504 50.3409C88.7862 50.6477 88.9325 51.0057 88.9893 51.4148H87.9837C87.907 51.1165 87.7365 50.8523 87.4723 50.6222C87.2109 50.3892 86.8587 50.2727 86.4155 50.2727C86.0234 50.2727 85.6797 50.375 85.3842 50.5795C85.0916 50.7812 84.8629 51.0668 84.6982 51.4361C84.5362 51.8026 84.4553 52.233 84.4553 52.7273C84.4553 53.233 84.5348 53.6733 84.6939 54.0483C84.8558 54.4233 85.0831 54.7145 85.3757 54.9219C85.6712 55.1293 86.0178 55.233 86.4155 55.233C86.6768 55.233 86.9141 55.1875 87.1271 55.0966C87.3402 55.0057 87.5206 54.875 87.6683 54.7045C87.8161 54.5341 87.9212 54.3295 87.9837 54.0909H88.9893C88.9325 54.4773 88.7919 54.8253 88.5675 55.1349C88.3459 55.4418 88.0518 55.6861 87.6854 55.8679C87.3217 56.0469 86.8984 56.1364 86.4155 56.1364ZM93.1186 56.1364C92.5277 56.1364 92.0092 55.9957 91.5632 55.7145C91.12 55.4332 90.7734 55.0398 90.5234 54.5341C90.2763 54.0284 90.1527 53.4375 90.1527 52.7614C90.1527 52.0795 90.2763 51.4844 90.5234 50.9759C90.7734 50.4673 91.12 50.0724 91.5632 49.7912C92.0092 49.5099 92.5277 49.3693 93.1186 49.3693C93.7095 49.3693 94.2266 49.5099 94.6697 49.7912C95.1158 50.0724 95.4624 50.4673 95.7095 50.9759C95.9595 51.4844 96.0845 52.0795 96.0845 52.7614C96.0845 53.4375 95.9595 54.0284 95.7095 54.5341C95.4624 55.0398 95.1158 55.4332 94.6697 55.7145C94.2266 55.9957 93.7095 56.1364 93.1186 56.1364ZM93.1186 55.233C93.5675 55.233 93.9368 55.1179 94.2266 54.8878C94.5163 54.6577 94.7308 54.3551 94.87 53.9801C95.0092 53.6051 95.0788 53.1989 95.0788 52.7614C95.0788 52.3239 95.0092 51.9162 94.87 51.5384C94.7308 51.1605 94.5163 50.8551 94.2266 50.6222C93.9368 50.3892 93.5675 50.2727 93.1186 50.2727C92.6697 50.2727 92.3004 50.3892 92.0107 50.6222C91.7209 50.8551 91.5064 51.1605 91.3672 51.5384C91.228 51.9162 91.1584 52.3239 91.1584 52.7614C91.1584 53.1989 91.228 53.6051 91.3672 53.9801C91.5064 54.3551 91.7209 54.6577 92.0107 54.8878C92.3004 55.1179 92.6697 55.233 93.1186 55.233ZM103.466 56.1364C102.921 56.1364 102.439 55.9986 102.022 55.723C101.604 55.4446 101.277 55.0526 101.042 54.5469C100.806 54.0384 100.688 53.4375 100.688 52.7443C100.688 52.0568 100.806 51.4602 101.042 50.9545C101.277 50.4489 101.605 50.0582 102.026 49.7827C102.446 49.5071 102.932 49.3693 103.483 49.3693C103.909 49.3693 104.246 49.4403 104.493 49.5824C104.743 49.7216 104.934 49.8807 105.064 50.0597C105.198 50.2358 105.301 50.3807 105.375 50.4943H105.461V47.2727H106.466V56H105.495V54.9943H105.375C105.301 55.1136 105.196 55.2642 105.06 55.446C104.924 55.625 104.729 55.7855 104.476 55.9276C104.223 56.0668 103.887 56.1364 103.466 56.1364ZM103.603 55.233C104.006 55.233 104.347 55.1278 104.625 54.9176C104.904 54.7045 105.115 54.4105 105.26 54.0355C105.405 53.6577 105.478 53.2216 105.478 52.7273C105.478 52.2386 105.407 51.8111 105.265 51.4446C105.123 51.0753 104.912 50.7884 104.634 50.5838C104.355 50.3764 104.012 50.2727 103.603 50.2727C103.176 50.2727 102.821 50.3821 102.537 50.6009C102.256 50.8168 102.044 51.1108 101.902 51.483C101.763 51.8523 101.694 52.267 101.694 52.7273C101.694 53.1932 101.765 53.6165 101.907 53.9972C102.051 54.375 102.265 54.6761 102.546 54.9006C102.83 55.1222 103.182 55.233 103.603 55.233ZM108.448 56V49.4545H109.453V56H108.448ZM108.959 48.3636C108.763 48.3636 108.594 48.2969 108.452 48.1634C108.313 48.0298 108.243 47.8693 108.243 47.6818C108.243 47.4943 108.313 47.3338 108.452 47.2003C108.594 47.0668 108.763 47 108.959 47C109.155 47 109.323 47.0668 109.462 47.2003C109.604 47.3338 109.675 47.4943 109.675 47.6818C109.675 47.8693 109.604 48.0298 109.462 48.1634C109.323 48.2969 109.155 48.3636 108.959 48.3636ZM113.938 58.5909C113.452 58.5909 113.034 58.5284 112.685 58.4034C112.335 58.2812 112.044 58.1193 111.811 57.9176C111.581 57.7188 111.398 57.5057 111.261 57.2784L112.062 56.7159C112.153 56.8352 112.268 56.9716 112.408 57.125C112.547 57.2812 112.737 57.4162 112.979 57.5298C113.223 57.6463 113.543 57.7045 113.938 57.7045C114.466 57.7045 114.902 57.5767 115.246 57.321C115.589 57.0653 115.761 56.6648 115.761 56.1193V54.7898H115.676C115.602 54.9091 115.497 55.0568 115.361 55.233C115.227 55.4062 115.034 55.5611 114.781 55.6974C114.531 55.831 114.193 55.8977 113.767 55.8977C113.239 55.8977 112.764 55.7727 112.344 55.5227C111.926 55.2727 111.595 54.9091 111.351 54.4318C111.109 53.9545 110.989 53.375 110.989 52.6932C110.989 52.0227 111.107 51.4389 111.342 50.9418C111.578 50.4418 111.906 50.0554 112.327 49.7827C112.747 49.5071 113.233 49.3693 113.784 49.3693C114.21 49.3693 114.548 49.4403 114.798 49.5824C115.051 49.7216 115.244 49.8807 115.378 50.0597C115.514 50.2358 115.619 50.3807 115.693 50.4943H115.795V49.4545H116.767V56.1875C116.767 56.75 116.639 57.2074 116.384 57.5597C116.131 57.9148 115.79 58.1747 115.361 58.3395C114.935 58.5071 114.46 58.5909 113.938 58.5909ZM113.903 54.9943C114.307 54.9943 114.648 54.902 114.926 54.7173C115.205 54.5327 115.416 54.267 115.561 53.9205C115.706 53.5739 115.778 53.1591 115.778 52.6761C115.778 52.2045 115.707 51.7884 115.565 51.4276C115.423 51.0668 115.213 50.7841 114.935 50.5795C114.656 50.375 114.313 50.2727 113.903 50.2727C113.477 50.2727 113.122 50.3807 112.838 50.5966C112.557 50.8125 112.345 51.1023 112.203 51.4659C112.064 51.8295 111.994 52.233 111.994 52.6761C111.994 53.1307 112.065 53.5327 112.207 53.8821C112.352 54.2287 112.565 54.5014 112.847 54.7003C113.131 54.8963 113.483 54.9943 113.903 54.9943ZM118.608 56V49.4545H119.614V56H118.608ZM119.119 48.3636C118.923 48.3636 118.754 48.2969 118.612 48.1634C118.473 48.0298 118.403 47.8693 118.403 47.6818C118.403 47.4943 118.473 47.3338 118.612 47.2003C118.754 47.0668 118.923 47 119.119 47C119.315 47 119.483 47.0668 119.622 47.2003C119.764 47.3338 119.835 47.4943 119.835 47.6818C119.835 47.8693 119.764 48.0298 119.622 48.1634C119.483 48.2969 119.315 48.3636 119.119 48.3636ZM124.302 49.4545V50.3068H120.91V49.4545H124.302ZM121.899 47.8864H122.904V54.125C122.904 54.4091 122.946 54.6222 123.028 54.7642C123.113 54.9034 123.221 54.9972 123.352 55.0455C123.485 55.0909 123.626 55.1136 123.774 55.1136C123.885 55.1136 123.975 55.108 124.047 55.0966C124.118 55.0824 124.174 55.071 124.217 55.0625L124.422 55.9659C124.353 55.9915 124.258 56.017 124.136 56.0426C124.014 56.071 123.859 56.0852 123.672 56.0852C123.387 56.0852 123.109 56.0241 122.836 55.902C122.566 55.7798 122.342 55.5938 122.163 55.3438C121.987 55.0938 121.899 54.7784 121.899 54.3977V47.8864ZM127.741 56.1534C127.326 56.1534 126.95 56.0753 126.612 55.919C126.274 55.7599 126.005 55.5312 125.806 55.233C125.608 54.9318 125.508 54.5682 125.508 54.142C125.508 53.767 125.582 53.4631 125.73 53.2301C125.877 52.9943 126.075 52.8097 126.322 52.6761C126.569 52.5426 126.842 52.4432 127.14 52.3778C127.441 52.3097 127.744 52.2557 128.048 52.2159C128.446 52.1648 128.768 52.1264 129.015 52.1009C129.265 52.0724 129.447 52.0256 129.561 51.9602C129.677 51.8949 129.735 51.7812 129.735 51.6193V51.5852C129.735 51.1648 129.62 50.8381 129.39 50.6051C129.163 50.3722 128.818 50.2557 128.355 50.2557C127.875 50.2557 127.498 50.3608 127.225 50.571C126.953 50.7812 126.761 51.0057 126.65 51.2443L125.696 50.9034C125.866 50.5057 126.093 50.196 126.377 49.9744C126.664 49.75 126.977 49.5937 127.315 49.5057C127.656 49.4148 127.991 49.3693 128.321 49.3693C128.531 49.3693 128.772 49.3949 129.045 49.446C129.321 49.4943 129.586 49.5952 129.842 49.7486C130.1 49.902 130.315 50.1335 130.485 50.4432C130.656 50.7528 130.741 51.1676 130.741 51.6875V56H129.735V55.1136H129.684C129.616 55.2557 129.502 55.4077 129.343 55.5696C129.184 55.7315 128.973 55.8693 128.708 55.983C128.444 56.0966 128.122 56.1534 127.741 56.1534ZM127.895 55.25C128.292 55.25 128.627 55.1719 128.9 55.0156C129.176 54.8594 129.383 54.6577 129.522 54.4105C129.664 54.1634 129.735 53.9034 129.735 53.6307V52.7102C129.693 52.7614 129.599 52.8082 129.454 52.8509C129.312 52.8906 129.147 52.9261 128.96 52.9574C128.775 52.9858 128.595 53.0114 128.419 53.0341C128.245 53.054 128.105 53.071 127.997 53.0852C127.735 53.1193 127.491 53.1747 127.264 53.2514C127.039 53.3253 126.858 53.4375 126.718 53.5881C126.582 53.7358 126.514 53.9375 126.514 54.1932C126.514 54.5426 126.643 54.8068 126.902 54.9858C127.163 55.1619 127.494 55.25 127.895 55.25ZM133.582 47.2727V56H132.577V47.2727H133.582Z" fill="white"/>
</svg>
